<svg width="289" height="43" viewBox="0 0 289 43" fill="none" xmlns="http://www.w3.org/2000/svg">
<g clip-path="url(#clip0_1_107)">
<path d="M157.951 15.9202C162.807 12.7981 164.178 10.0888 162.983 5.9733C161.959 2.43189 158.591 0.309632 153.448 0.180619C149.114 0.0645077 144.774 0.148366 140.434 0.0903103C139.07 0.0709583 138.176 0.270928 138.182 1.9739C138.234 11.9466 138.215 21.9193 138.202 31.892C138.202 32.995 138.417 33.7691 139.794 33.724C145.42 33.5304 151.092 34.2981 156.672 33.3305C161.835 32.4338 164.733 29.2537 165.026 24.8479C165.307 20.6808 162.912 17.6683 157.951 15.9202ZM149.356 5.26373C154.12 5.59916 156.424 6.71512 156.424 9.59211C156.431 12.6691 153.905 13.8947 148.827 14.2559C144.624 14.5527 145.342 12.0176 145.414 9.25023C144.67 6.35389 145.694 5.0057 149.356 5.26373ZM155.347 27.6475C152.489 29.0602 149.297 28.8666 146.438 28.2538C144.108 27.7571 145.995 25.0737 145.238 23.4481C146.132 22.0225 143.952 19.5971 146.713 18.8617C151.151 17.6812 156.117 19.0617 157.325 21.5968C158.408 23.8609 157.586 26.538 155.347 27.6475Z" fill="white"/>
<path d="M221.136 16.92C220.053 10.9983 215.654 7.85043 209.656 8.52775C207.143 8.81158 205.478 10.4371 203.449 12.3401C203.449 8.60516 203.357 5.39274 203.475 2.18677C203.573 -0.59991 201.563 0.0774074 200.12 0.148364C198.658 0.219322 196.413 -0.890189 196.433 2.18032C196.491 12.0563 196.452 21.9322 196.459 31.8081C196.459 32.6661 196.42 33.4337 197.64 33.7304C200.995 34.5497 202.874 33.524 203.54 29.8407C206.464 34.1755 210.432 34.6529 214.498 33.5692C218.741 32.4338 220.509 28.9569 221.234 24.893C221.71 22.2225 221.619 19.5648 221.136 16.92ZM214.211 23.8545C213.31 27.183 211.568 28.7183 208.631 28.5635C205.922 28.4215 203.984 26.4025 203.547 23.2288C203.462 22.5966 203.468 21.9451 203.429 21.3065C203.396 19.7906 203.514 18.3005 204.258 16.9329C205.374 14.8816 207.019 13.5786 209.473 13.8173C211.751 14.0431 213.193 15.4557 213.911 17.5458C214.616 19.6035 214.792 21.6935 214.211 23.8545Z" fill="white"/>
<path d="M249.801 16.6685C248.626 10.908 244.332 7.90204 238.432 8.5213C235.899 8.78578 234.209 10.3662 232.159 12.4175C232.159 8.63741 232.048 5.44434 232.192 2.25772C232.31 -0.4838 230.391 0.0258011 228.903 0.148363C227.46 0.270926 225.143 -0.9805 225.15 2.10936C225.189 11.9853 225.156 21.8677 225.176 31.7436C225.176 32.4403 225.006 33.2015 225.966 33.6401C228.668 34.8593 231.644 33.324 232.146 30.0406C235.638 33.724 239.084 34.8851 243.157 33.6401C247.112 32.4403 249.011 29.3698 249.827 25.5962C250.46 22.6418 250.414 19.6358 249.801 16.6685ZM242.915 23.8609C242.021 27.1895 240.272 28.7183 237.335 28.5635C234.626 28.4151 232.688 26.3896 232.257 23.2223C232.172 22.5837 232.179 21.9386 232.14 21.3C232.101 19.7777 232.225 18.294 232.969 16.9265C234.091 14.8752 235.736 13.5786 238.19 13.8237C240.468 14.0495 241.904 15.4622 242.622 17.5522C243.333 19.61 243.503 21.7064 242.915 23.8609Z" fill="white"/>
<path d="M15.181 0.212873C11.0627 0.0193538 6.91825 0.232225 2.79341 0.0580577C0.659194 -0.0258007 -0.0587377 0.645066 2.17906e-06 2.77378C0.137062 7.5021 0.0391621 12.2304 0.0391621 16.9587C0.0456887 21.7903 0.150115 26.6283 0.00652883 31.4598C-0.0978975 34.769 2.26475 33.5885 3.82462 33.6853C5.43017 33.7885 7.44038 34.3626 7.26416 31.4082C7.10752 28.8537 6.4418 25.6413 7.68187 23.8738C9.20258 21.6935 12.7335 23.1965 15.3768 22.9449C21.7468 22.3515 25.6367 18.0747 25.6106 11.4628C25.5845 4.967 21.5575 0.522504 15.1745 0.212873H15.181ZM15.1614 17.0749C12.9554 17.9715 10.6841 17.5071 8.43243 17.5587C7.18584 17.5845 7.23153 16.5846 7.225 15.7202C7.225 14.2237 7.225 12.7271 7.225 11.2306C7.225 5.45725 9.42448 3.99295 15.0243 6.15392C17.3805 7.06346 18.5096 8.90834 18.503 11.4112C18.4965 13.9398 17.7721 16.0105 15.1614 17.0749Z" fill="white"/>
<path d="M36.4057 12.7529C38.4224 10.2436 40.1389 8.87609 42.5342 8.5084C49.0151 7.50855 53.0356 10.8048 53.3227 17.6941C53.5185 22.3063 53.2836 26.9314 53.3945 31.5501C53.4728 34.8851 51.0254 33.5176 49.4981 33.6917C47.9187 33.8723 46.2087 34.1497 46.3196 31.4727C46.4893 27.3959 46.4175 23.3126 46.3196 19.2294C46.2413 15.7589 44.4595 13.8237 41.6074 13.8495C38.6508 13.8753 36.6015 16.004 36.5101 19.4035C36.4122 23.3771 36.3208 27.3572 36.5427 31.3243C36.6798 33.853 35.2831 33.911 33.5405 33.7175C31.961 33.5434 29.6767 34.7238 29.7093 31.4598C29.8137 21.7967 29.8203 12.1272 29.7093 2.46415C29.6702 -0.728922 31.8566 0.283829 33.4948 0.116112C35.3614 -0.077407 36.6015 0.232224 36.4448 2.62541C36.2425 5.70882 36.3991 8.81803 36.3991 12.7658L36.4057 12.7529Z" fill="white"/>
<path d="M116.181 12.9529C118.054 10.65 119.673 8.9922 122.172 8.55356C128.725 7.39889 133.007 10.7919 133.124 17.4167C133.209 22.029 132.98 26.6541 133.202 31.2598C133.353 34.3948 131.303 33.6208 129.587 33.7369C127.681 33.8659 126.232 33.8207 126.395 31.1631C126.617 27.4217 126.519 23.6481 126.428 19.8938C126.33 15.8686 124.698 13.9205 121.598 13.856C118.57 13.7915 116.422 16.1976 116.338 19.9776C116.246 23.8416 116.22 27.712 116.338 31.5695C116.429 34.6142 114.229 33.6079 112.728 33.6982C111.201 33.7885 109.491 34.2658 109.524 31.5308C109.654 21.7645 109.641 11.9917 109.53 2.22547C109.504 -0.232222 111.012 -0.0193509 112.5 0.141915C113.955 0.296731 116.259 -0.915991 116.194 2.16097C116.122 5.54756 116.174 8.9406 116.174 12.9529H116.181Z" fill="white"/>
<path d="M68.9149 26.9766C70.3703 21.7129 71.8192 16.4491 73.2942 11.1919C73.8882 9.08251 78.633 7.53436 80.3887 8.84384C81.0675 9.35344 80.7803 9.9727 80.578 10.5662C77.6083 19.1907 74.8215 27.8861 71.5908 36.4139C69.6393 41.5551 65.273 43.5483 59.7775 42.8774C57.937 42.6517 58.0806 41.568 58.1328 40.4004C58.185 39.2264 57.6368 37.904 59.7841 37.6202C64.1504 37.0396 64.9075 35.6463 63.5043 31.5824C61.1938 24.8866 58.9226 18.1779 56.4816 11.5273C55.7049 9.41149 55.6853 8.67612 58.3939 8.55356C61.8595 8.39874 63.6348 9.20507 64.3201 12.9013C65.2077 17.6812 66.8459 22.3192 68.1578 27.0218C68.4123 27.0024 68.6668 26.9895 68.9214 26.9701L68.9149 26.9766Z" fill="white"/>
<path d="M273.571 22.7385C275.738 22.8353 277.911 22.7643 280.085 22.7579C282.362 22.7579 284.647 22.7256 286.925 22.7708C288.204 22.7966 288.83 22.474 288.961 21.0097C289.457 15.4751 285.489 9.72112 280.241 8.60516C273.551 7.17957 267.599 10.0501 265.641 15.7847C264.479 19.21 264.375 22.7385 265.478 26.2283C268.095 34.5238 280.202 37.2396 286.239 30.8534C287.381 29.6536 289.268 27.9764 287.988 26.5186C286.938 25.3188 284.497 25.9058 282.715 26.3251C282.088 26.4734 281.658 27.3572 281.083 27.841C277.879 30.5309 273.147 29.215 271.815 25.3188C271.221 23.6094 271.424 22.6482 273.571 22.7385ZM274.061 14.1463C275.699 13.1271 277.428 12.7981 279.256 13.7399C280.907 14.5914 282.284 15.9395 281.977 17.707C281.651 19.6422 279.66 18.3972 278.44 18.694C277.931 18.8165 277.37 18.7133 276.828 18.7133C276.286 18.7133 275.731 18.7972 275.216 18.694C274.067 18.4553 272.266 19.4809 271.9 17.8038C271.574 16.3137 272.716 14.9848 274.061 14.1463Z" fill="white"/>
<path d="M185.344 29.7633C181.088 34.2529 177.714 35.227 173.504 33.4143C169.334 31.6146 168.237 28.0603 168.29 23.9125C168.335 19.6229 168.446 15.3267 168.244 11.05C168.126 8.50195 169.582 8.54065 171.298 8.67612C172.95 8.80513 175.201 7.85043 175.071 11.0371C174.921 14.8945 174.947 18.7585 175.071 22.616C175.201 26.667 176.879 28.6022 179.927 28.557C182.811 28.5118 184.58 26.596 184.782 22.8869C184.998 18.9326 185.102 14.959 185.017 10.9983C184.946 7.79883 187.21 8.83738 188.836 8.68257C190.604 8.5084 191.916 8.61161 191.851 11.0951C191.681 17.5264 191.812 23.9641 191.779 30.3954C191.773 31.9694 192.477 34.0271 189.475 33.7691C187.21 33.5756 184.3 34.5109 185.35 29.7697L185.344 29.7633Z" fill="white"/>
<path d="M82.0922 23.4029C82.0531 12.0111 88.4361 6.78608 97.6909 8.61161C100.576 9.17927 102.971 10.6371 104.4 13.2561C105.177 14.6817 106.574 16.2879 105.157 17.9005C104.08 19.1262 99.9034 17.8231 98.9049 16.1395C97.8737 14.4043 96.4182 13.5915 94.3493 13.6367C92.2412 13.6818 90.8379 14.6688 90.0025 16.4556C88.6123 19.4229 88.6058 22.4805 89.7806 25.5058C90.5377 27.4475 91.9018 28.6796 94.16 28.7763C96.3138 28.8666 97.9389 28.17 99.0028 26.2283C99.7533 24.8543 104.094 23.9061 105.223 24.8414C106.163 25.622 105.601 26.596 105.308 27.4797C103.408 33.2402 95.7525 36.0204 89.1671 33.2595C83.8479 31.0276 82.1575 26.6218 82.0922 23.4029Z" fill="white"/>
<path d="M260.955 17.2813C260.955 22.0032 260.805 26.7379 261.014 31.4533C261.138 34.182 259.447 33.853 257.874 33.6853C256.341 33.524 253.939 34.8657 253.958 31.5501C254.03 21.7774 254.011 12.0047 253.971 2.23192C253.958 -1.06436 256.412 0.322533 257.946 0.129014C259.611 -0.0838576 261.118 -0.141913 261.014 2.46415C260.805 7.39244 260.955 12.3401 260.955 17.2813Z" fill="white"/>
</g>
<defs>
<clipPath id="clip0_1_107">
<rect width="289" height="43" fill="white"/>
</clipPath>
</defs>
</svg>
