<svg width="36" height="36" viewBox="0 0 36 36" fill="none" xmlns="http://www.w3.org/2000/svg">
<path d="M19.6341 5.20244C19.6341 4.6209 19.403 4.06318 18.9918 3.65196C18.5806 3.24075 18.0229 3.00974 17.4414 3.00974C16.8598 3.00974 16.3021 3.24075 15.8909 3.65196C15.4797 4.06318 15.2486 4.6209 15.2486 5.20244V14.7042H5.74691C5.16537 14.7042 4.60764 14.9352 4.19643 15.3464C3.78522 15.7576 3.5542 16.3153 3.5542 16.8969C3.5542 17.4784 3.78522 18.0362 4.19643 18.4474C4.60764 18.8586 5.16537 19.0896 5.74691 19.0896H15.2486V28.5913C15.2486 29.1729 15.4797 29.7306 15.8909 30.1418C16.3021 30.553 16.8598 30.784 17.4414 30.784C18.0229 30.784 18.5806 30.553 18.9918 30.1418C19.403 29.7306 19.6341 29.1729 19.6341 28.5913V19.0896H29.1358C29.7173 19.0896 30.2751 18.8586 30.6863 18.4474C31.0975 18.0362 31.3285 17.4784 31.3285 16.8969C31.3285 16.3153 31.0975 15.7576 30.6863 15.3464C30.2751 14.9352 29.7173 14.7042 29.1358 14.7042H19.6341V5.20244Z" fill="white"/>
</svg>
