<svg width="22" height="22" viewBox="0 0 22 22" fill="none" xmlns="http://www.w3.org/2000/svg">
<path d="M12.276 4.48778C12.276 4.06907 12.1096 3.66751 11.8136 3.37143C11.5175 3.07536 11.1159 2.90903 10.6972 2.90903C10.2785 2.90903 9.87695 3.07536 9.58087 3.37143C9.2848 3.66751 9.11847 4.06907 9.11847 4.48778H8.06597C8.06597 3.78993 8.34319 3.12066 8.83664 2.6272C9.3301 2.13375 9.99937 1.85653 10.6972 1.85653C11.3951 1.85653 12.0643 2.13375 12.5578 2.6272C13.0512 3.12066 13.3285 3.78993 13.3285 4.48778H18.0647C18.2043 4.48778 18.3381 4.54322 18.4368 4.64191C18.5355 4.74061 18.591 4.87446 18.591 5.01403C18.591 5.1536 18.5355 5.28745 18.4368 5.38614C18.3381 5.48484 18.2043 5.54028 18.0647 5.54028H17.4816L16.1176 17.3599C16.0582 17.8728 15.8123 18.3461 15.4267 18.6896C15.0411 19.0331 14.5427 19.2228 14.0263 19.2228H7.36816C6.85175 19.2228 6.35333 19.0331 5.96772 18.6896C5.58211 18.3461 5.33623 17.8728 5.27684 17.3599L3.91175 5.54028H3.32972C3.20655 5.54032 3.08727 5.49716 2.99264 5.41831C2.89802 5.33945 2.83406 5.22991 2.81189 5.10875L2.80347 5.01403C2.80347 4.87446 2.85891 4.74061 2.9576 4.64191C3.05629 4.54322 3.19015 4.48778 3.32972 4.48778H12.276ZM16.4207 5.54028H4.97267L6.32197 17.2388C6.35168 17.4954 6.4747 17.7321 6.66761 17.9039C6.86052 18.0756 7.10986 18.1704 7.36816 18.1703H14.0263C14.2844 18.1702 14.5335 18.0752 14.7262 17.9035C14.9189 17.7318 15.0417 17.4952 15.0714 17.2388L16.4207 5.54028ZM9.11847 8.17153C9.37633 8.17153 9.59209 8.33467 9.6363 8.54938L9.64472 8.63252V15.0791C9.64472 15.3327 9.40896 15.539 9.11847 15.539C8.8606 15.539 8.64484 15.3759 8.60064 15.1612L8.59222 15.078V8.63358C8.59222 8.37887 8.82798 8.17258 9.11847 8.17258V8.17153ZM12.276 8.17153C12.5338 8.17153 12.7496 8.33467 12.7938 8.54938L12.8022 8.63252V15.0791C12.8022 15.3327 12.5665 15.539 12.276 15.539C12.0181 15.539 11.8023 15.3759 11.7581 15.1612L11.7497 15.078V8.63358C11.7497 8.37887 11.9855 8.17258 12.276 8.17258V8.17153Z" fill="#F25F4C"/>
</svg>
